# xmcd
#
# Track frame offsets:
#	150
#	11237
#	21236
#	30474
#	40847
#	50704
#	61205
#	71144
#	79062
#	92441
#
# Disc length: 1348 seconds
#
# Revision: 0
# Processed by: cddbd v1.5.2PL0 Copyright (c) Steve Scherf et al.
# Submitted via: EasyCDDAExtractor 15.3.0.1
#
DISCID=7d05420a
DTITLE=Hoyt Axton - Lonesome Road
DYEAR=1900
DGENRE=Western
TTITLE0=Double Dare
TTITLE1=Young Man
TTITLE2=Never Gonna Work
TTITLE3=Bring Your Loving
TTITLE4=Tiger In The Closet
TTITLE5=Red  White  And Blue
TTITLE6=Heartbreak Hotel
TTITLE7=Big Red
TTITLE8=Lonesome Road
TTITLE9=I'll Be There
EXTD=
EXTT0=
EXTT1=
EXTT2=
EXTT3=
EXTT4=
EXTT5=
EXTT6=
EXTT7=
EXTT8=
EXTT9=
PLAYORDER=
